<svg xmlns="http://www.w3.org/2000/svg" viewBox="0 0 61.67244 51.31195"><title>create-poll</title><path d="M51.43159.00144a5,5,0,0,1,3.57,1.44,4.84,4.84,0,0,1,1.51,3.62v12.88h-5.08v-12.88h-46.25v30.83h33.36v5.18h-5.18v5.18h5.18v5.06h-20.54v-5.06h5.17v-5.18h-17.99a4.86,4.86,0,0,1-3.67-1.57,5,5,0,0,1-1.51-3.61v-30.83a4.8,4.8,0,0,1,1.51-3.62,5.09,5.09,0,0,1,3.67-1.44Z" fill="#0085ba"/><path d="M60.94159,23.84144a2.44,2.44,0,0,0-1.8-.72h-12.89a2.46,2.46,0,0,0-2.53,2.388q-.00206.071,0,.14205v23.13a2.48,2.48,0,0,0,2.429,2.53q.05051.001.101,0h12.89a2.49,2.49,0,0,0,2.53-2.44935q.00064-.04034,0-.08065v-23.13A2.45,2.45,0,0,0,60.94159,23.84144Zm-1.8,22.41h-12.89v-18.07h12.89Z" fill="#0085ba"/><rect x="10.52159" y="10.84144" width="14.03" height="4.02" fill="#01b9ff"/><rect x="10.52159" y="18.88144" width="20.01" height="3.93" fill="#01b9ff"/><rect x="10.52159" y="26.83144" width="8.04" height="4.02" fill="#01b9ff"/><rect x="48.02159" y="30.85144" width="5.64" height="1.62" fill="#01b9ff"/><rect x="48.02159" y="34.08144" width="8.04" height="1.58" fill="#01b9ff"/><rect x="48.02159" y="37.28144" width="3.23" height="1.62" fill="#01b9ff"/></svg>